<svg width="22" height="22" viewBox="0 0 22 22" fill="none" xmlns="http://www.w3.org/2000/svg">
<path d="M11.0693 1.83301C11.2117 1.83333 11.3523 1.86667 11.4795 1.93067L18.7881 5.59668C18.9265 5.66609 19.0451 5.76984 19.1328 5.89746C19.2204 6.02511 19.275 6.17307 19.29 6.32715C19.3249 6.68831 20.0513 15.2261 11.5205 20.0469C11.3853 20.1234 11.2325 20.1645 11.0771 20.166C10.9218 20.1675 10.7684 20.1297 10.6318 20.0557C1.753 15.2276 2.79082 6.38677 2.80273 6.29785C2.84135 5.99559 3.02874 5.73218 3.30078 5.59473L10.6592 1.92871C10.7866 1.86532 10.9271 1.83275 11.0693 1.83301ZM5.50879 8.36133C5.32786 8.25508 5.08297 8.43287 5.24707 8.72949L10.2295 16.875C10.3852 17.1406 10.7802 16.99 10.7676 16.751L10.7598 11.1641C10.7555 10.8499 10.6794 10.7794 10.4902 10.6953L5.50879 8.36133ZM17.1514 8.73828C17.2902 8.49482 17.0713 8.21622 16.7432 8.37988L11.8027 10.7217C11.7944 10.7261 11.7856 10.73 11.7773 10.7344C11.7143 10.7742 11.6724 10.8146 11.6514 10.8633C11.622 10.9164 11.6133 10.9829 11.6133 11.0625L11.626 16.6846C11.6302 17.0608 11.9881 17.1321 12.1943 16.8135L16.5244 9.75586L16.6162 9.60547L16.6963 9.47754V9.47266L17.1514 8.73828ZM5.79004 7.01563C5.48732 7.0291 5.40365 7.34828 5.67285 7.46777L10.9619 9.92871C11.0965 9.99497 11.2645 9.98643 11.4746 9.88477L16.6836 7.46289C16.9613 7.35664 16.8057 7.02904 16.5869 7.06445L5.79004 7.01563Z" fill="#6D8394"/>
</svg>
