<svg width="14" height="14" viewBox="0 0 14 14" fill="none" xmlns="http://www.w3.org/2000/svg">
<rect x="1.55554" y="1.55554" width="10.8889" height="10.8889" rx="5.44444" fill="#248BDA"/>
<path fill-rule="evenodd" clip-rule="evenodd" d="M9.9744 4.81045C10.0619 4.90242 10.1111 5.02715 10.1111 5.1572C10.1111 5.28725 10.0619 5.41198 9.9744 5.50395L6.47467 9.18008C6.42842 9.22868 6.37351 9.26722 6.31308 9.29352C6.25265 9.31982 6.18787 9.33335 6.12246 9.33335C6.05704 9.33335 5.99227 9.31982 5.93184 9.29352C5.8714 9.26722 5.81649 9.22868 5.77024 9.18008L4.03143 7.35395C3.98684 7.30871 3.95126 7.25459 3.92679 7.19475C3.90232 7.13492 3.88944 7.07056 3.8889 7.00544C3.88836 6.94031 3.90018 6.87573 3.92366 6.81545C3.94713 6.75518 3.9818 6.70042 4.02564 6.65437C4.06948 6.60832 4.12162 6.5719 4.179 6.54724C4.23638 6.52258 4.29787 6.51017 4.35986 6.51074C4.42186 6.5113 4.48313 6.52483 4.5401 6.55054C4.59706 6.57624 4.64859 6.6136 4.69166 6.66045L6.1223 8.16321L9.31386 4.81045C9.35722 4.76487 9.40871 4.72872 9.46538 4.70405C9.52205 4.67938 9.58279 4.66669 9.64413 4.66669C9.70547 4.66669 9.76621 4.67938 9.82288 4.70405C9.87955 4.72872 9.93104 4.76487 9.9744 4.81045Z" fill="#223444"/>
</svg>
