<svg width="14" height="14" viewBox="0 0 14 14" fill="none" xmlns="http://www.w3.org/2000/svg">
<path d="M3.99001 6.29998C4.27001 4.89998 5.53001 3.84998 7.00001 3.84998C8.05001 3.84998 8.89001 4.33998 9.45001 5.10998L10.64 3.70998C9.80001 2.72998 8.47001 2.09998 7.00001 2.09998C4.55001 2.09998 2.52001 3.91998 2.17001 6.29998H0.700012L3.15001 9.09998L5.60001 6.29998H3.99001ZM10.85 4.89998L8.40001 7.69998H10.01C9.66001 9.09998 8.47001 10.15 7.00001 10.15C5.95001 10.15 5.11001 9.65998 4.55001 8.88998L3.36001 10.22C4.20001 11.27 5.53001 11.9 7.00001 11.9C9.45001 11.9 11.48 10.08 11.83 7.69998H13.3L10.85 4.89998Z" fill="#5AEC8C"/>
</svg>
