<svg width="123" height="48" viewBox="0 0 123 48" fill="none" xmlns="http://www.w3.org/2000/svg">
<g clip-path="url(#clip0_1_3052)">
<path fill-rule="evenodd" clip-rule="evenodd" d="M14.3871 17.2L22.7344 20.8922C22.9469 20.9918 23.2125 20.9785 23.5445 20.8258L31.7656 17.1934C32.2039 17.034 31.9582 16.5426 31.6129 16.5957L14.573 16.5227C14.0949 16.5426 13.9621 17.0207 14.3871 17.2ZM13.7164 19.0926L21.5789 31.3113C21.8246 31.7098 22.4488 31.484 22.4289 31.1254L22.4156 22.7449C22.409 22.2734 22.2894 22.1672 21.9906 22.041L14.1281 18.5414C13.8426 18.382 13.4574 18.6477 13.7164 19.0926ZM23.7637 22.5922L23.7836 31.0258C23.7902 31.5902 24.3547 31.6965 24.6801 31.2184L31.5133 20.6332L31.6594 20.4074L31.7855 20.2148V20.2082L32.5027 19.1059C32.7219 18.7406 32.3765 18.3223 31.8586 18.568L24.0625 22.0809C24.0492 22.0875 24.0359 22.0941 24.0226 22.1008C23.923 22.1605 23.8566 22.2203 23.8234 22.2934C23.7769 22.373 23.7637 22.4727 23.7637 22.5922Z" fill="white"/>
</g>
<g clip-path="url(#clip1_1_3052)">
<g clip-path="url(#clip2_1_3052)">
<path fill-rule="evenodd" clip-rule="evenodd" d="M40.0957 31.3018H42.4119V24.8795H45.4006V22.7738H42.4119V18.6678H46.2225V16.5621H40.0957V31.3018ZM47.5029 31.3018H49.8191V24.9848H50.6206C51.6734 24.9848 52.0742 25.4263 52.0742 26.795V29.4916C52.0742 30.6904 52.1557 30.9214 52.2848 31.3018H54.6417C54.4108 30.755 54.3904 30.2285 54.3904 29.5119V26.9206C54.3904 25.2599 54.01 24.1629 52.8519 23.8063V23.7621C53.8844 23.341 54.3666 22.3731 54.3666 20.8584V19.9516C54.3666 17.6795 53.3376 16.5621 50.9365 16.5621H47.5029V31.3018ZM49.8191 22.8791V18.6678H50.8719C51.6938 18.6678 52.0504 19.1297 52.0504 20.1825V21.3202C52.0504 22.4987 51.524 22.8791 50.6614 22.8791H49.8191ZM55.5451 31.3018H57.6916L58.1127 28.4184H60.7448V28.3742L61.1659 31.3018H63.4821L61.081 16.5621H57.9463L55.5451 31.3018ZM58.3878 26.418L59.3965 19.1297H59.4406L60.4731 26.418H58.3878ZM68.0059 31.5123C70.2814 31.5123 71.4599 30.164 71.4599 27.807V22.9844H68.1112V25.0901H69.2693V27.9734C69.2693 29.0263 68.8074 29.4067 68.0704 29.4067C67.3334 29.4067 66.8716 29.0263 66.8716 27.9734V19.9108C66.8716 18.858 67.3334 18.4572 68.0704 18.4572C68.8074 18.4572 69.2693 18.858 69.2693 19.9108V21.3202H71.4599V20.0568C71.4599 17.6999 70.2814 16.3516 68.0059 16.3516C65.7338 16.3516 64.5553 17.6999 64.5553 20.0568V27.807C64.5553 30.164 65.7338 31.5123 68.0059 31.5123ZM73.1206 31.3018H75.1414V20.1418H75.1855L76.87 31.3018H78.8059L80.4904 20.1418H80.5346V31.3018H82.7217V16.5621H79.4172L77.9433 27.1108H77.9025L76.4285 16.5621H73.1206V31.3018ZM84.6168 31.3018H90.9338V29.1961H86.9331V24.6689H90.1119V22.5633H86.9331V18.6678H90.9338V16.5621H84.6168V31.3018ZM92.4248 31.3018H94.4897V20.5425H94.5304L97.3085 31.3018H99.6893V16.5621H97.6244V25.3855H97.5836L95.3319 16.5621H92.4248V31.3018ZM103.391 31.3018H105.707V18.6678H108.129V16.5621H100.97V18.6678H103.391V31.3018Z" fill="white"/>
</g>
</g>
<defs>
<clipPath id="clip0_1_3052">
<rect width="34" height="34" fill="white" transform="translate(6 7)"/>
</clipPath>
<clipPath id="clip1_1_3052">
<rect width="77" height="18" fill="white" transform="translate(32 15)"/>
</clipPath>
<clipPath id="clip2_1_3052">
<rect width="76.7547" height="18" fill="white" transform="translate(32 15)"/>
</clipPath>
</defs>
</svg>
