<svg width="16" height="16" viewBox="0 0 16 16" fill="none" xmlns="http://www.w3.org/2000/svg">
<path d="M8.04969 1.33301C8.15322 1.33326 8.25507 1.35776 8.34754 1.4043L13.663 4.07031C13.7637 4.12082 13.8502 4.19618 13.914 4.28906C13.9777 4.38191 14.0173 4.4895 14.0282 4.60156C14.0535 4.86423 14.5815 11.0741 8.37684 14.5801C8.27856 14.6357 8.16748 14.665 8.05458 14.666C7.94175 14.667 7.83056 14.6397 7.73133 14.5859C1.274 11.0746 2.02833 4.64475 2.037 4.58008C2.06511 4.36042 2.20165 4.16932 2.3993 4.06934L7.75086 1.40235C7.84359 1.35621 7.94612 1.33278 8.04969 1.33301ZM4.00477 6.08106C3.87329 6.00384 3.69555 6.13223 3.81434 6.34766L7.43739 12.2725C7.55056 12.4656 7.83888 12.3564 7.82997 12.1826L7.82313 8.11914C7.82007 7.89058 7.76546 7.83851 7.62782 7.77735L4.00477 6.08106ZM12.4716 6.35449C12.5725 6.17741 12.4134 5.97462 12.1747 6.09375L8.58192 7.79688C8.57599 7.8 8.57027 7.80352 8.56434 7.80664C8.51844 7.83562 8.48784 7.86497 8.47254 7.90039C8.45116 7.93901 8.44423 7.98702 8.44422 8.04492L8.45399 12.1338C8.45705 12.4075 8.71713 12.4594 8.86708 12.2275L12.0155 7.09473L12.0829 6.98535L12.1415 6.89258V6.88867L12.4716 6.35449ZM4.20985 5.10254C3.98952 5.1122 3.92807 5.34373 4.12391 5.43067L7.97059 7.22071C8.06847 7.26887 8.19076 7.26247 8.34364 7.18848L12.1317 5.42774C12.3337 5.35046 12.2205 5.11194 12.0614 5.1377L4.20985 5.10254Z" fill="white"/>
</svg>
