<svg width="18" height="18" viewBox="0 0 18 18" fill="none" xmlns="http://www.w3.org/2000/svg">
<rect x="2" y="2" width="14" height="14" rx="7" fill="#00A717"/>
<path fill-rule="evenodd" clip-rule="evenodd" d="M12.8242 6.18484C12.9368 6.30309 13 6.46345 13 6.63066C13 6.79787 12.9368 6.95823 12.8242 7.07649L8.32458 11.8029C8.26512 11.8654 8.19452 11.915 8.11682 11.9488C8.03912 11.9826 7.95584 12 7.87174 12C7.78763 12 7.70435 11.9826 7.62665 11.9488C7.54895 11.915 7.47835 11.8654 7.41889 11.8029L5.18327 9.45506C5.12594 9.39689 5.0802 9.32731 5.04874 9.25037C5.01728 9.17344 5.00072 9.09069 5.00002 9.00696C4.99933 8.92323 5.01452 8.8402 5.0447 8.7627C5.07489 8.6852 5.11947 8.6148 5.17583 8.55559C5.2322 8.49638 5.29923 8.44956 5.373 8.41785C5.44678 8.38615 5.52583 8.37019 5.60554 8.37092C5.68525 8.37165 5.76403 8.38904 5.83727 8.42209C5.91051 8.45514 5.97676 8.50318 6.03213 8.56341L7.87154 10.4955L11.975 6.18484C12.0307 6.12624 12.0969 6.07975 12.1698 6.04804C12.2426 6.01632 12.3207 6 12.3996 6C12.4785 6 12.5566 6.01632 12.6294 6.04804C12.7023 6.07975 12.7685 6.12624 12.8242 6.18484Z" fill="#222B33"/>
</svg>
