<svg width="16" height="16" viewBox="0 0 16 16" fill="none" xmlns="http://www.w3.org/2000/svg">
<path d="M7.83333 12.6666H7.66667C6.08889 12.6666 4.75 12.1166 3.65 11.0166C2.55 9.91665 2 8.57776 2 6.99998C2 5.4222 2.55 4.08331 3.65 2.98331C4.75 1.88331 6.08889 1.33331 7.66667 1.33331C8.45556 1.33331 9.19178 1.48042 9.87533 1.77465C10.5589 2.06887 11.1589 2.47442 11.6753 2.99131C12.1918 3.5082 12.5971 4.1082 12.8913 4.79131C13.1856 5.47442 13.3329 6.21065 13.3333 6.99998C13.3333 8.48887 12.9138 9.8722 12.0747 11.15C11.2356 12.4278 10.1773 13.4278 8.9 14.15C8.78889 14.2055 8.67778 14.2362 8.56667 14.242C8.45556 14.2478 8.35556 14.2226 8.26667 14.1666C8.17778 14.1106 8.1 14.0384 8.03333 13.95C7.96667 13.8615 7.92778 13.756 7.91667 13.6333L7.83333 12.6666ZM9.33333 12.2333C10.1222 11.5666 10.764 10.7862 11.2587 9.89198C11.7533 8.99776 12.0004 8.03376 12 6.99998C12 5.78887 11.5804 4.76398 10.7413 3.92531C9.90222 3.08665 8.87733 2.66709 7.66667 2.66665C6.456 2.6662 5.43111 3.08576 4.592 3.92531C3.75289 4.76487 3.33333 5.78976 3.33333 6.99998C3.33333 8.2102 3.75289 9.23531 4.592 10.0753C5.43111 10.9153 6.456 11.3346 7.66667 11.3333H9.33333V12.2333ZM7.65 10.65C7.83889 10.65 8 10.5833 8.13333 10.45C8.26667 10.3166 8.33333 10.1555 8.33333 9.96665C8.33333 9.77776 8.26667 9.61665 8.13333 9.48331C8 9.34998 7.83889 9.28331 7.65 9.28331C7.46111 9.28331 7.3 9.34998 7.16667 9.48331C7.03333 9.61665 6.96667 9.77776 6.96667 9.96665C6.96667 10.1555 7.03333 10.3166 7.16667 10.45C7.3 10.5833 7.46111 10.65 7.65 10.65ZM6.2 5.58331C6.32222 5.63887 6.44444 5.64176 6.56667 5.59198C6.68889 5.5422 6.78889 5.46153 6.86667 5.34998C6.96667 5.21665 7.08333 5.11376 7.21667 5.04131C7.35 4.96887 7.5 4.93287 7.66667 4.93331C7.93333 4.93331 8.15 5.0082 8.31667 5.15798C8.48333 5.30776 8.56667 5.49954 8.56667 5.73331C8.56667 5.87776 8.52511 6.0222 8.442 6.16665C8.35889 6.31109 8.21156 6.48887 8 6.69998C7.72222 6.94442 7.51667 7.17509 7.38333 7.39198C7.25 7.60887 7.18333 7.8282 7.18333 8.04998C7.18333 8.18331 7.23067 8.29731 7.32533 8.39198C7.42 8.48665 7.53378 8.53376 7.66667 8.53331C7.79956 8.53287 7.91067 8.48287 8 8.38331C8.08933 8.28376 8.156 8.16709 8.2 8.03331C8.25556 7.84442 8.35556 7.6722 8.5 7.51665C8.64444 7.36109 8.77778 7.2222 8.9 7.09998C9.13333 6.86665 9.30844 6.63331 9.42533 6.39998C9.54222 6.16665 9.60044 5.93331 9.6 5.69998C9.6 5.18887 9.42489 4.77776 9.07467 4.46665C8.72444 4.15554 8.25511 3.99998 7.66667 3.99998C7.31111 3.99998 6.98333 4.0862 6.68333 4.25865C6.38333 4.43109 6.13889 4.66709 5.95 4.96665C5.88333 5.08887 5.87489 5.20842 5.92467 5.32531C5.97444 5.4422 6.06622 5.5282 6.2 5.58331Z" fill="#6D8394"/>
</svg>
